<svg width="174" height="174" viewBox="0 0 174 174" fill="none" xmlns="http://www.w3.org/2000/svg">
<path d="M98.8092 55.3224H117.684C118.121 55.2636 118.482 55.5408 118.541 55.9608L118.516 73.0884C118.633 74.0292 118.306 75.0456 117.625 75.8436L80.3544 113.35C79.6572 114.08 78.7164 114.509 77.7756 114.542L60.0348 114.568C59.5812 114.584 59.2452 114.248 59.262 113.803L59.304 95.004C59.3376 94.1556 59.7156 93.2988 60.3624 92.6268L96.3732 56.6496C97.0116 55.902 97.902 55.4148 98.8092 55.314V55.3224Z" fill="#00DB80"/>
<path d="M102.724 140.255C101.422 141.532 99.75 142.246 98.154 142.22L34.818 142.136C32.9196 142.111 31.5924 140.767 31.6092 138.869V77.0952C31.6092 75.5076 32.3652 73.8612 33.6756 72.5844L55.1796 51.3576H16.4136L2.2344 65.4276C0.8484 66.78 0.0252 68.5608 0 70.2492L0.0168 168.336C-0.00840002 169.94 0.5292 171.31 1.4784 172.276C2.4276 173.242 3.7884 173.804 5.4096 173.813L104.236 173.83C105.932 173.83 107.73 173.048 109.116 171.696L122.489 157.962V122.321L102.724 140.255Z" fill="#00DB80"/>
<path d="M168.521 0H69.5268C67.872 0 66.15 0.772799 64.7976 2.1336L39.9 27.6528H141.532C144.32 27.6948 146.261 29.736 146.252 32.6088L145.942 134.459L171.587 109.393C172.931 108.041 173.729 106.26 173.754 104.572V5.4852C173.804 2.268 171.654 0.0168002 168.529 0.00840019L168.521 0Z" fill="#00DB80"/>
</svg>
